<svg xmlns="http://www.w3.org/2000/svg" width="70" height="16" viewBox="0 0 70 16" fill="none">
    <path fill-rule="evenodd" clip-rule="evenodd"
          d="M50.8884 1.38085L49.4955 3.24479C49.3616 3.42167 49.1741 3.5169 48.9598 3.5169H40.3616C40.0938 3.5169 39.8795 3.38085 39.7589 3.13595C39.6384 2.90466 39.6652 2.63255 39.8259 2.41486L41.2187 0.550917C41.3527 0.374047 41.5402 0.278809 41.7545 0.278809H50.3527C50.6205 0.278809 50.8348 0.414863 50.9554 0.659761C51.0759 0.904659 51.0491 1.17677 50.8884 1.38085ZM36.5179 0.496496C36.317 0.292414 36.0491 0.237992 35.7812 0.346836C35.5268 0.455679 35.3661 0.700578 35.3661 0.972686V10.1836C35.3661 13.2176 37.8036 15.6938 40.7902 15.6938H46.3482C49.3348 15.6938 51.7723 13.2176 51.7723 10.1836C51.7723 7.14956 49.3348 4.67337 46.3482 4.67337H41.7545C41.5402 4.67337 41.3527 4.7686 41.2187 4.94547L39.8259 6.80942C39.6652 7.02711 39.6384 7.28561 39.7589 7.53051C39.8795 7.7618 40.0938 7.91146 40.3616 7.91146H46.3616C47.5937 7.91146 48.6116 8.93187 48.6116 10.1972C48.6116 11.4489 47.6071 12.4829 46.3616 12.4829H40.8036C39.5714 12.4829 38.5536 11.4489 38.5536 10.1972V2.85024C38.5536 2.65976 38.4866 2.4965 38.3527 2.37405L36.5179 0.496496ZM9.15625 0.292414H11.4598C11.6741 0.292414 11.8616 0.387652 11.9955 0.564523L16.5223 6.72779C16.6161 6.85024 16.6562 6.98629 16.6562 7.13595V10.1972C16.6562 13.2312 14.2187 15.7074 11.2321 15.7074H5.67411C2.6875 15.7074 0.25 13.2312 0.25 10.1972C0.25 7.16316 2.6875 4.68697 5.67411 4.68697H9.51786C9.73214 4.68697 9.91964 4.78221 10.0536 4.95908L11.4464 6.82303C11.6071 7.04071 11.6339 7.29922 11.5134 7.54411C11.3929 7.77541 11.1786 7.92507 10.9107 7.92507H5.67411C4.44196 7.92507 3.42411 8.94547 3.42411 10.2108C3.42411 11.4625 4.42857 12.4965 5.67411 12.4965H11.2321C12.4643 12.4965 13.4821 11.4761 13.4821 10.2108V7.99309C13.4821 7.97949 13.4821 7.96588 13.4687 7.95228L8.62053 1.36724C8.45982 1.14956 8.44643 0.891053 8.55357 0.659761C8.67411 0.428468 8.90179 0.292414 9.15625 0.292414ZM29.0179 15.6938H26.7143C26.4598 15.6938 26.2321 15.5577 26.1116 15.3128C25.9911 15.0815 26.0179 14.8094 26.1786 14.6053L31.0268 8.03391C31.0402 8.02031 31.0402 8.0203 31.0402 7.99309V5.80262C31.0402 4.55092 30.0357 3.5169 28.7902 3.5169H23.2321C22 3.5169 20.9821 4.53731 20.9821 5.80262C20.9821 7.05432 21.9866 8.08833 23.2321 8.08833H28.4821C28.7366 8.08833 28.9643 8.22439 29.0848 8.46928C29.2054 8.70058 29.1786 8.97269 29.0179 9.19037L27.625 11.0543C27.4911 11.2312 27.3036 11.3264 27.0893 11.3264H23.2455C20.2589 11.3264 17.8214 8.85024 17.8214 5.81622C17.8214 2.78221 20.2589 0.30602 23.2455 0.30602H28.8036C31.7902 0.30602 34.2277 2.78221 34.2277 5.81622V8.87745C34.2277 9.02711 34.1875 9.16316 34.0938 9.28561L29.567 15.4489C29.433 15.5985 29.2455 15.6938 29.0179 15.6938Z"
          fill="#08060B"></path>
    <path fill-rule="evenodd" clip-rule="evenodd"
          d="M40.5894 12.4692C37.1876 12.4556 35.4466 10.6052 35.3662 6.91817V2.03381C35.3662 1.7481 35.5269 1.51681 35.7814 1.40796C36.0359 1.29912 36.3171 1.35354 36.518 1.55762L38.3528 3.42157C38.4867 3.55762 38.5537 3.72089 38.5537 3.89776V10.1835C38.5403 11.3808 39.451 12.3603 40.5894 12.4692Z"
          fill="#08060B"></path>
    <path fill-rule="evenodd" clip-rule="evenodd"
          d="M28.9912 3.53027C31.9109 3.53027 33.6117 4.90442 34.0805 7.62551C34.0939 7.70714 34.1742 8.97245 34.1876 9.05408L31.0537 9.31259L31.0269 7.62551V5.80238C31.0403 4.61871 30.143 3.62551 28.9912 3.53027Z"
          fill="#08060B"></path>
    <path fill-rule="evenodd" clip-rule="evenodd"
          d="M11.4331 12.4693C14.3527 12.4693 16.0536 11.0952 16.5224 8.37409C16.5358 8.29245 16.6161 7.02715 16.6295 6.94552L13.4956 6.68701L13.4822 8.37409V10.1972C13.4822 11.3809 12.5849 12.3605 11.4331 12.4693Z"
          fill="#08060B"></path>
    <path fill-rule="evenodd" clip-rule="evenodd"
          d="M45.8794 15.7075C46.0267 14.6054 46.0803 13.3537 46.174 12.483H46.3615C47.5937 12.483 48.6115 11.4626 48.6115 10.1973C48.6115 8.94558 47.6071 7.91157 46.3615 7.91157C48.3839 7.82994 49.7633 8.10204 50.5133 8.7415C52.8571 10.7007 50.5803 15.9116 45.8794 15.7075Z"
          fill="#08060B"></path>
    <path fill-rule="evenodd" clip-rule="evenodd"
          d="M23.7142 0.292464C23.5669 1.3945 23.5133 2.6462 23.4196 3.51695H23.2321C21.9999 3.51695 20.9821 4.53736 20.9821 5.80267C20.9821 7.05437 21.9866 8.08838 23.2321 8.08838C21.2098 8.17001 19.8303 7.89791 19.0803 7.25845C16.7366 5.28566 18.9999 0.0883821 23.7142 0.292464Z"
          fill="#08060B"></path>
    <path fill-rule="evenodd" clip-rule="evenodd"
          d="M6.14281 15.7075C5.99549 14.6054 5.94192 13.3537 5.84817 12.483H5.66067C4.42853 12.483 3.41067 11.4626 3.41067 10.1973C3.41067 8.94558 4.41513 7.91157 5.66067 7.91157C3.63835 7.82994 2.25888 8.10204 1.50888 8.7415C-0.821474 10.7143 1.44192 15.9116 6.14281 15.7075Z"
          fill="#08060B"></path>
    <path fill-rule="evenodd" clip-rule="evenodd"
          d="M59.7813 0.278809H64.3349C67.2545 0.278809 69.6519 2.71418 69.6519 5.68017V10.306C69.6519 13.272 67.2545 15.7074 64.3349 15.7074H59.7813C56.8617 15.7074 54.4644 13.272 54.4644 10.306V5.68017C54.4644 2.71418 56.8483 0.278809 59.7813 0.278809Z"
          fill="#5C2D91"></path>
    <path fill-rule="evenodd" clip-rule="evenodd"
          d="M64.0939 14.9047H60.0091C57.3841 14.9047 55.2412 12.7278 55.2412 10.0611V5.92508C55.2412 3.25841 57.3841 1.08154 60.0091 1.08154H64.0939C66.7189 1.08154 68.8617 3.25841 68.8617 5.92508V10.0747C68.8617 12.7278 66.7189 14.9047 64.0939 14.9047Z"
          fill="#5C2D91"></path>
    <path fill-rule="evenodd" clip-rule="evenodd"
          d="M62.701 11.0541H63.5849C64.4286 11.0541 65.1117 10.3603 65.1117 9.50311C65.1117 8.64597 64.4286 7.95209 63.5849 7.95209H59.5001C59.326 7.95209 59.1653 7.85686 59.0849 7.69359C59.0045 7.53033 59.0179 7.35346 59.1251 7.20379L60.076 5.93849C60.1697 5.81604 60.2903 5.76162 60.4376 5.76162H63.5715C65.6072 5.76162 67.2679 7.44869 67.2679 9.51672C67.2679 11.5439 65.6608 13.2174 63.6653 13.2718C63.6519 13.2718 63.6385 13.2718 63.6385 13.2718H63.5849H62.701H61.3617H60.4778H60.4242C60.4108 13.2718 60.3974 13.2718 60.384 13.2718C58.576 13.231 57.0626 11.8433 56.8215 10.0745C56.7813 9.82965 56.8885 9.53033 57.2233 9.51672H58.509C58.7635 9.53033 58.9242 9.66638 58.9911 9.92488V9.93849C59.1786 10.5916 59.7679 11.0677 60.4644 11.0677H61.3483L62.701 11.0541ZM66.692 3.48951L65.7411 4.75482C65.6474 4.87726 65.5269 4.93169 65.3795 4.93169H59.5135C59.3394 4.93169 59.1786 4.83645 59.0983 4.67318C59.0179 4.50992 59.0313 4.33305 59.1385 4.18339L60.0894 2.91808C60.1831 2.79563 60.3036 2.74121 60.451 2.74121H66.317C66.4911 2.74121 66.6519 2.83645 66.7322 2.99971C66.8126 3.16298 66.7992 3.35346 66.692 3.48951Z"
          fill="white"></path>
</svg>